<svg width="50" height="50" viewBox="0 0 50 50" fill="none" xmlns="http://www.w3.org/2000/svg">
<path fill-rule="evenodd" clip-rule="evenodd" d="M4.03762 19.9256L6.86769 19.28C7.46723 19.2 8.00001 19 8.00001 19V39.0001C8.00001 42.3138 10.6863 45.0001 14 45.0001H36C39.3137 45.0001 42 42.3138 42 39.0001L42 19L45.925 19.9238C47.5016 20.1352 48.2798 18.0699 46.9556 17.1885L27.1996 4.037C25.857 3.14326 24.1091 3.14326 22.7665 4.037L3.00794 17.1901C1.68422 18.0713 2.46142 20.136 4.03762 19.9256ZM9.00001 39.0001H11C11 40.6569 12.3432 42.0001 14 42.0001H36C37.6569 42.0001 39 40.6569 39 39.0001V20.5404C39 18.9612 39.908 17.618 41.2055 16.9646L25.5372 6.53428C25.2016 6.31084 24.7646 6.31084 24.4289 6.53428L8.77642 16.954C10.0836 17.6041 11 18.9525 11 20.539V20.5463V20.5539V20.5619V20.5703V20.579V20.5881V20.5975V20.6073V20.6175V20.628V20.6389V20.6501V20.6616V20.6735V20.6858V20.6984V20.7113V20.7246V20.7383V20.7522V20.7665V20.7812V20.7961V20.8114V20.8271V20.843V20.8593V20.876V20.8929V20.9102V20.9278V20.9457V20.9639V20.9825V21.0013V21.0205V21.04V21.0598V21.08V21.1004V21.1211V21.1422V21.1635V21.1852V21.2071V21.2294V21.2519V21.2748V21.2979V21.3214V21.3451V21.3691V21.3934V21.418V21.4429V21.4681V21.4936V21.5193V21.5453V21.5716V21.5982V21.625V21.6522V21.6796V21.7073V21.7352V21.7634V21.7919V21.8206V21.8496V21.8789V21.9085V21.9383V21.9683V21.9986V22.0292V22.06V22.0911V22.1224V22.154V22.1858V22.2179V22.2502V22.2827V22.3155V22.3486V22.3819V22.4154V22.4491V22.4831V22.5173V22.5518V22.5865V22.6214V22.6565V22.6919V22.7275V22.7633V22.7993V22.8356V22.8721V22.9088V22.9457V22.9828V23.0201V23.0576V23.0954V23.1334V23.1715V23.2099V23.2485V23.2872V23.3262V23.3654V23.4048V23.4443V23.4841V23.524V23.5642V23.6045V23.6451V23.6858V23.7267V23.7678V23.809V23.8505V23.8921V23.9339V23.9759V24.018V24.0604V24.1029V24.1455V24.1884V24.2314V24.2746V24.3179V24.3614V24.4051V24.4489V24.4929V24.537V24.5813V24.6258V24.6704V24.7151V24.76V24.8051V24.8503V24.8956V24.9411V24.9868V25.0325V25.0785V25.1245V25.1707V25.217V25.2635V25.3101V25.3568V25.4036V25.4506V25.4977V25.5449V25.5923V25.6398V25.6874V25.7351V25.7829V25.8308V25.8789V25.9271V25.9753V26.0237V26.0722V26.1208V26.1695V26.2184V26.2673V26.3163V26.3654V26.4146V26.4639V26.5133V26.5628V26.6124V26.6621V26.7119V26.7617V26.8117V26.8617V26.9118V26.962V27.0123V27.0626V27.1131V27.1636V27.2141V27.2648V27.3155V27.3663V27.4171V27.4681V27.5191V27.5701V27.6212V27.6724V27.7236V27.7749V27.8263V27.8777V27.9291V27.9806V28.0322V28.0838V28.1355V28.1872V28.2389V28.2907V28.3425V28.3944V28.4463V28.4982V28.5502V28.6022V28.6543V28.7063V28.7584V28.8106V28.8627V28.9149V28.9671V29.0193V29.0716V29.1238V29.1761V29.2284V29.2807V29.3331V29.3854V29.4378V29.4901V29.5425V29.5949V29.6472V29.6996V29.752V29.8044V29.8567V29.9091V29.9615V30.0138V30.0662V30.1185V30.1709V30.2232V30.2755V30.3278V30.3801V30.4323V30.4845V30.5368V30.5889V30.6411V30.6933V30.7454V30.7975V30.8495V30.9015V30.9535V31.0055V31.0574V31.1093V31.1611V31.2129V31.2647V31.3164V31.3681V31.4197V31.4713V31.5228V31.5743V31.6257V31.6771V31.7284V31.7796V31.8308V31.882V31.9331V31.9841V32.035V32.0859V32.1367V32.1875V32.2381V32.2888V32.3393V32.3897V32.4401V32.4904V32.5406V32.5908V32.6409V32.6908V32.7407V32.7905V32.8402V32.8899V32.9394V32.9888V33.0382V33.0874V33.1366V33.1857V33.2346V33.2835V33.3322V33.3809V33.4294V33.4778V33.5262V33.5744V33.6225V33.6705V33.7183V33.7661V33.8137V33.8613V33.9087V33.9559V34.0031V34.0501V34.097V34.1438V34.1904V34.2369V34.2833V34.3295V34.3757V34.4216V34.4674V34.5131V34.5587V34.6041V34.6493V34.6945V34.7394V34.7842V34.8289V34.8734V34.9178V34.962V35.006V35.0499V35.0937V35.1372V35.1806V35.2239V35.2669V35.3099V35.3526V35.3952V35.4376V35.4798V35.5218V35.5637V35.6054V35.6469V35.6883V35.7294V35.7704V35.8112V35.8518V35.8922V35.9324V35.9724V36.0123V36.0519V36.0914V36.1306V36.1697V36.2085V36.2472V36.2856V36.3239V36.3619V36.3998V36.4374V36.4748V36.512V36.549V36.5858V36.6223V36.6587V36.6948V36.7307V36.7664V36.8018V36.8371V36.8721V36.9068V36.9414V36.9757V37.0098V37.0436V37.0772V37.1106V37.1437V37.1766V37.2093V37.2417V37.2739V37.3058V37.3375V37.3689V37.4001V37.431V37.4616V37.4921V37.5222V37.5521V37.5817V37.6111V37.6402V37.6691V37.6977V37.726V37.7541V37.7818V37.8093V37.8366V37.8635V37.8902V37.9166V37.9428V37.9686V37.9942V38.0195V38.0445V38.0692V38.0936V38.1178V38.1416V38.1652V38.1884V38.2114V38.2341V38.2564V38.2785V38.3003V38.3218V38.3429V38.3638V38.3843V38.4046V38.4245V38.4441V38.4634V38.4824V38.5011V38.5195V38.5375V38.5552V38.5726V38.5897V38.6065V38.6229V38.639V38.6548V38.6702V38.6853V38.7001V38.7145V38.7286V38.7424V38.7558V38.7689V38.7816V38.794V38.806V38.8177V38.8291V38.8401V38.8507V38.861V38.871V38.8806V38.8898V38.8987V38.9072V38.9153V38.9231V38.9305V38.9376V38.9442V38.9505V38.9565V38.9621V38.9673V38.9721V38.9765V38.9806V38.9843V38.9876V38.9905V38.993V38.9952V38.9969V38.9983V38.9993V38.9999C11 39 11 39.0001 9.00001 39.0001ZM9.00001 39.0001V20.539C9.00001 19.7148 8.50536 19.0192 7.81087 18.7101C8.50537 19.0192 9.00003 19.7148 9.00003 20.539L9.00001 39.0001ZM3.56208 18.0226H3.56209C3.20462 18.2605 3.30679 18.7574 3.63786 18.9002C3.30678 18.7574 3.2046 18.2605 3.56208 18.0226Z" fill="#D1D2D3"/>
<rect x="39" y="15" width="3" height="6" fill="#D1D2D3"/>
<rect x="8" y="15" width="3" height="6" fill="#D1D2D3"/>
<rect x="28" y="26" width="8" height="8" rx="1" fill="#D1D2D3"/>
</svg>
