<svg width="50" height="50" viewBox="0 0 50 50" fill="none" xmlns="http://www.w3.org/2000/svg">
<path fill-rule="evenodd" clip-rule="evenodd" d="M47 26C47 38.1503 37.1503 48 25 48C12.8497 48 3 38.1503 3 26C3 13.8497 12.8497 4 25 4C37.1503 4 47 13.8497 47 26ZM36 30C37.6569 30 39 28.6569 39 27C39 25.3431 37.6569 24 36 24C34.3431 24 33 25.3431 33 27C33 28.6569 34.3431 30 36 30ZM17 27C17 28.6569 15.6569 30 14 30C12.3431 30 11 28.6569 11 27C11 25.3431 12.3431 24 14 24C15.6569 24 17 25.3431 17 27ZM28.5 30H24.0245L26.4983 21.8718C26.7395 21.0792 26.2925 20.2412 25.5 20C24.7075 19.7588 23.8695 20.2057 23.6282 20.9983L20.7615 30.4177C20.3704 31.7025 21.3318 33 22.6748 33H28.5C29.3284 33 30 32.3284 30 31.5C30 30.6716 29.3284 30 28.5 30Z" fill="black"/>
</svg>
