<svg width="40" height="40" viewBox="0 0 40 40" fill="none" xmlns="http://www.w3.org/2000/svg">
<path fill-rule="evenodd" clip-rule="evenodd" d="M14.7489 31.1506C15.7209 31.5839 16.4259 32.5204 16.5187 33.6452C16.5312 33.7966 16.5933 34.0391 17.016 34.3249C17.4866 34.6431 18.4249 35.0027 20.0033 35.0045C21.5775 35.0063 22.5131 34.6471 22.9821 34.3294C23.4047 34.0433 23.4686 33.7985 23.4812 33.6452C23.6105 32.0787 24.9269 30.8776 26.4987 30.892L35.0162 30.9703C34.8416 30.5173 34.5459 30.1138 34.1529 29.8083L31.8704 28.0339C31.1393 27.4655 30.7117 26.5914 30.7117 25.6654V20.6931C30.7117 18.8323 30.4863 17.2022 30.0488 15.8507L32.3617 13.5378C33.312 15.5893 33.7117 18.0607 33.7117 20.6931V25.6654L35.9942 27.4398C37.3847 28.5208 38.1978 30.1835 38.1971 31.9448C38.1966 33.0768 37.2733 33.9912 36.1414 33.9808L26.4711 33.8919C26.2811 36.1948 23.9999 38.009 20 38.0045C16 38 13.7188 36.1948 13.5288 33.8919L11.9934 33.9061L14.7489 31.1506ZM2.47133 33.5287C2.47251 33.5275 2.47369 33.5263 2.47488 33.5251L5.15786 30.8421C5.33903 30.5534 5.58409 30.3036 5.88081 30.115L4.27137 27.5832L5.88081 30.115L5.89243 30.1076L10.2879 25.7121C10.2881 25.6966 10.2882 25.681 10.2882 25.6654V20.6931C10.2882 17.8508 10.5393 15.6522 11.22 14.0764C11.8108 12.7086 12.7332 11.7599 14.5688 11.2876C14.6287 11.2722 14.6881 11.255 14.7469 11.2359L15.9255 10.8537C17.3291 10.3985 18.1919 8.99094 17.9639 7.53599C17.9626 7.52641 17.9592 7.49947 17.9552 7.45776C17.9471 7.37265 17.9375 7.23431 17.9375 7.0625C17.9375 6.69767 17.9811 6.29341 18.0961 5.94868C18.2043 5.62394 18.3409 5.44743 18.4875 5.3375C18.6207 5.23761 19.0156 5 20 5C20.9844 5 21.3793 5.23761 21.5125 5.3375C21.6591 5.44743 21.7957 5.62394 21.9039 5.94868C22.0189 6.29341 22.0625 6.69767 22.0625 7.0625C22.0625 7.23431 22.0529 7.37265 22.0448 7.45776C22.0408 7.49952 22.0374 7.52648 22.0361 7.53602C21.8081 8.99088 22.6708 10.3983 24.0743 10.8536L24.8838 11.1162L27.2732 8.72682C26.9249 8.59563 26.5601 8.48048 26.1785 8.38228L25 8C25 8 26 2 20 2C14 2 15 8 15 8L13.8214 8.38223C8.25098 9.81528 7.28824 14.8576 7.28824 20.6931V25.6654L4.27137 27.5832C2.73333 28.561 1.80176 30.257 1.80176 32.0796C1.80176 32.6603 2.06177 33.1798 2.47133 33.5287ZM17.9639 7.53599C17.9625 7.52718 17.9611 7.51837 17.9596 7.50955L17.9601 7.51218L17.9609 7.51706L17.9622 7.52535L17.9639 7.53621L17.9644 7.53954C17.9645 7.54014 17.9643 7.53898 17.9639 7.53613C17.9639 7.53608 17.9639 7.53604 17.9639 7.53599Z" fill="#000"/>
<path fill-rule="evenodd" clip-rule="evenodd" d="M36.0607 5.06068C36.6465 5.64646 36.6465 6.59621 36.0607 7.182L5.182 38.0607C4.59621 38.6465 3.64646 38.6465 3.06068 38.0607C2.47489 37.4749 2.47489 36.5251 3.06068 35.9394L33.9394 5.06068C34.5251 4.47489 35.4749 4.47489 36.0607 5.06068Z" fill="#000"/>
</svg>
