<svg width="40" height="40" viewBox="0 0 40 40" fill="none" xmlns="http://www.w3.org/2000/svg">
<path fill-rule="evenodd" clip-rule="evenodd" d="M22.8614 2H13C10.7909 2 9 3.79086 9 6V9V12V28V31V34C9 36.2091 10.7909 38 13 38H27C29.2091 38 31 36.2091 31 34V31V28V18.81C30.3538 18.9346 29.6849 19 29 19C28.6625 19 28.3289 18.9841 28 18.9531V28H12V12H19.3499C19.1218 11.2034 19 10.3652 19 9.5C19 9.33228 19.0046 9.16558 19.0136 9H12V6C12 5.44772 12.4477 5 13 5H20.1908C20.8536 3.83149 21.7665 2.80993 22.8614 2ZM19.7005 6H19C18.4477 6 18 6.44772 18 7C18 7.55228 18.4477 8 19 8H19.1239C19.2399 7.30539 19.4351 6.63585 19.7005 6ZM12 34V31H28V34C28 34.5523 27.5523 35 27 35H13C12.4477 35 12 34.5523 12 34ZM18 33C18 32.4477 18.4477 32 19 32H21C21.5523 32 22 32.4477 22 33C22 33.5523 21.5523 34 21 34H19C18.4477 34 18 33.5523 18 33Z" fill="black"/>
<path fill-rule="evenodd" clip-rule="evenodd" d="M29 16C33.0129 16 36 12.9467 36 9.5C36 6.05329 33.0129 3 29 3C24.9871 3 22 6.05329 22 9.5C22 12.9467 24.9871 16 29 16ZM29 19C34.5228 19 39 14.7467 39 9.5C39 4.25329 34.5228 0 29 0C23.4772 0 19 4.25329 19 9.5C19 14.7467 23.4772 19 29 19Z" fill="black"/>
<path fill-rule="evenodd" clip-rule="evenodd" d="M29 6C29.5523 6 30 6.44772 30 7L30 12C30 12.5523 29.5523 13 29 13C28.4477 13 28 12.5523 28 12L28 7C28 6.44772 28.4477 6 29 6Z" fill="black"/>
</svg>
