<svg width="40" height="40" viewBox="0 0 40 40" fill="none" xmlns="http://www.w3.org/2000/svg">
<path d="M20 27C16.14 27 13 23.86 13 20C13 16.14 16.14 13 20 13C23.86 13 27 16.14 27 20C27 21.87 26.27 23.63 24.95 24.95C23.63 26.27 21.87 27 20 27ZM20 16C17.79 16 16 17.79 16 20C16 22.21 17.79 24 20 24C21.07 24 22.07 23.58 22.83 22.83C23.58 22.07 24 21.07 24 20C24 17.8 22.21 16 20 16Z" fill="black"/>
<path d="M20 37.9999C19.18 37.9999 18.37 37.9399 17.52 37.8299C15.9 37.6099 14.62 36.3199 14.41 34.6899L14.29 33.7899L13.56 34.3499C12.26 35.3399 10.45 35.3499 9.14996 34.3599C7.84996 33.3799 6.62996 32.1599 5.63996 30.8599C4.67996 29.5999 4.65996 27.8599 5.55996 26.5799L5.65996 26.4399L6.23996 25.6899C5.94996 25.6599 5.64996 25.6299 5.36996 25.5999L5.19996 25.5799C3.66996 25.3799 2.38996 24.0999 2.16996 22.4899C1.94996 20.8899 1.93996 19.2599 2.15996 17.6599L2.16996 17.5299C2.39996 15.9099 3.67996 14.6299 5.29996 14.4199L6.20996 14.2999L5.64996 13.5699C4.64996 12.2699 4.64996 10.4499 5.63996 9.14995C6.62996 7.84995 7.83996 6.62995 9.14996 5.63995C10.45 4.65995 12.26 4.65995 13.55 5.64995L14.29 6.21995L14.41 5.30995C14.63 3.67995 15.91 2.39995 17.53 2.17995C19.22 1.94995 20.8 1.94995 22.49 2.17995C24.11 2.39995 25.39 3.68995 25.6 5.30995L25.72 6.20995L26.44 5.65995C27.73 4.66995 29.54 4.65995 30.84 5.62995C32.19 6.64995 33.37 7.82995 34.37 9.15995C35.35 10.4599 35.35 12.2799 34.35 13.5699L33.8 14.2899L34.69 14.4099C36.31 14.6199 37.6 15.8999 37.83 17.5199C37.84 17.5999 37.99 18.8899 37.99 19.9999C37.99 21.1199 37.84 22.3999 37.83 22.4599C37.6 24.1099 36.31 25.3899 34.69 25.5999L33.8 25.7199L34.35 26.4399C35.35 27.7299 35.35 29.5499 34.36 30.8599C33.35 32.1899 32.17 33.3699 30.85 34.3699C29.59 35.3199 27.85 35.3499 26.57 34.4499L26.44 34.3499L25.72 33.7999L25.59 34.7999C25.39 36.3299 24.1 37.6199 22.49 37.8399C21.63 37.9399 20.82 37.9999 20 37.9999ZM14.74 30.2199C15.05 30.2199 15.38 30.2799 15.68 30.4099C16.46 30.7299 17 31.3999 17.09 32.1499L17.37 34.2999C17.41 34.5899 17.63 34.8099 17.92 34.8499C19.33 35.0499 20.63 35.0499 22.06 34.8499C22.35 34.8099 22.57 34.5799 22.61 34.2999L22.89 32.1399C22.99 31.3899 23.53 30.7199 24.3 30.4099C25.07 30.0899 25.93 30.1799 26.53 30.6399L28.25 31.9599C28.48 32.1299 28.8 32.1299 29.03 31.9599C30.13 31.1299 31.12 30.1399 31.96 29.0299C32.14 28.7999 32.14 28.4799 31.97 28.2499L30.63 26.5199C30.17 25.9199 30.08 25.0699 30.4 24.2999C30.72 23.5399 31.38 22.9999 32.12 22.8899L34.29 22.6099C34.58 22.5699 34.8 22.3499 34.84 22.0599C34.84 22.0599 34.97 20.9199 34.97 19.9899C34.97 19.0499 34.84 17.8999 34.83 17.8899C34.79 17.6399 34.57 17.4099 34.28 17.3699L32.12 17.0899C31.37 16.9899 30.71 16.4499 30.39 15.6899C30.07 14.9099 30.16 14.0599 30.62 13.4699L31.95 11.7399C32.13 11.5099 32.13 11.1899 31.95 10.9599C31.12 9.84995 30.13 8.86995 29.02 8.02995C28.79 7.85995 28.47 7.85995 28.24 8.02995L26.51 9.35995C25.91 9.81995 25.06 9.90995 24.29 9.58995C23.54 9.26995 23 8.60995 22.91 7.85995L22.62 5.69995C22.58 5.40995 22.36 5.18995 22.07 5.14995C20.66 4.94995 19.34 4.94995 17.93 5.14995C17.64 5.18995 17.42 5.41995 17.38 5.69995L17.1 7.85995C17 8.60995 16.46 9.26995 15.69 9.58995C14.92 9.90995 14.06 9.81995 13.46 9.35995L11.74 8.02995C11.51 7.85995 11.19 7.84995 10.96 8.02995C9.86996 8.85995 8.85996 9.86995 8.02996 10.9599C7.84996 11.1899 7.85996 11.5099 8.02996 11.7399L9.35996 13.4599C9.81996 14.0599 9.90996 14.9199 9.58996 15.6899C9.26996 16.4599 8.59996 16.9999 7.84996 17.0999L5.69996 17.3799C5.42996 17.4199 5.20996 17.6199 5.14996 17.8799L5.13996 17.9499C4.94996 19.3199 4.94996 20.6999 5.13996 22.0699C5.17996 22.3499 5.39996 22.5699 5.67996 22.6199C7.01996 22.7399 7.86996 22.8699 8.21996 22.9799C8.88996 23.1999 9.34996 23.6499 9.58996 24.3199C9.90996 25.0899 9.81996 25.9499 9.35996 26.5499L8.03996 28.2699C7.86996 28.4999 7.85996 28.8199 8.03996 29.0499C8.86996 30.1399 9.87996 31.1499 10.97 31.9699C11.2 32.1399 11.51 32.1399 11.73 31.9799L13.47 30.6399C13.82 30.3599 14.27 30.2199 14.74 30.2199ZM15.3 33.0199C15.29 33.0199 15.29 33.0199 15.3 33.0199V33.0199Z" fill="black"/>
</svg>
