<svg width="40" height="40" viewBox="0 0 40 40" fill="none" xmlns="http://www.w3.org/2000/svg">
<path fill-rule="evenodd" clip-rule="evenodd" d="M20 24C20.9556 24 21.8541 24.4553 22.4192 25.2259L28 32.8361V11C28 9.34315 26.6569 8 25 8H15C13.3431 8 12 9.34315 12 11L12 32.8361L17.5808 25.2259C18.1459 24.4553 19.0444 24 20 24ZM20 27L14.4192 34.6102C12.7046 36.9483 9 35.7355 9 32.8361V11C9 7.68629 11.6863 5 15 5H25C28.3137 5 31 7.68629 31 11V32.8361C31 35.7355 27.2954 36.9483 25.5808 34.6102L20 27Z" fill="#ACAEAF"/>
</svg>
