<svg width="40" height="40" viewBox="0 0 40 40" fill="none" xmlns="http://www.w3.org/2000/svg">
<path fill-rule="evenodd" clip-rule="evenodd" d="M17.5506 15.4713C18.5016 14.1855 18.5369 12.6003 17.6651 10.7597C17.0989 9.57689 15.5784 7.77244 14.491 6.48183C14.2424 6.18682 14.0164 5.91866 13.8297 5.69091L13.7416 5.58523C12.8787 4.52841 11.8748 4 10.7565 4C9.73856 4 8.19051 5.12207 7.36494 5.72046C7.18355 5.85194 7.03704 5.95813 6.93869 6.02159C6.91668 6.0348 6.89466 6.05021 6.87265 6.06562C6.85063 6.08104 6.82862 6.09645 6.80661 6.10966C5.58262 6.88466 4.69325 7.95028 4.35863 9.03352C3.85671 10.6628 3.52209 12.7764 5.92604 17.171C8.00418 20.9756 9.88859 23.5295 12.8825 26.6031C15.7003 29.4918 16.9507 30.4253 19.7509 32.4508C22.8681 34.7054 25.8621 36 27.9578 36C29.9038 36 32.436 35 34.6198 32.3668C36.9093 29.6014 35.9583 27.9105 34.5846 26.4926C33.299 25.1716 29.6446 21.6969 27.2495 21.6969C26.6947 21.6969 26.2104 21.8202 25.8142 22.0756C25.6187 22.2005 25.4385 22.3181 25.2705 22.4279C24.4316 22.9757 23.8941 23.3266 23.2605 23.4054C22.5 23.5 16.5 18 16.4851 17.4616C16.4707 16.939 16.7499 16.5596 17.4832 15.5629C17.5053 15.533 17.5277 15.5024 17.5506 15.4713ZM21.5091 30.02C24.4856 32.1729 26.8339 33 27.9578 33C28.8925 33 30.6156 32.4945 32.309 30.4536C32.8653 29.7818 32.978 29.4221 32.9975 29.3073C32.9764 29.2538 32.8731 29.0378 32.4322 28.5824C31.8419 27.9761 30.7287 26.8992 29.5292 25.9964C28.928 25.544 28.3694 25.1843 27.894 24.9489C27.5484 24.7777 27.3474 24.7228 27.2717 24.7052C27.188 24.7594 27.1002 24.8167 27.0101 24.8755C26.6338 25.121 26.2163 25.3934 25.8729 25.5898C25.3111 25.9112 24.5688 26.2658 23.6309 26.3825C22.778 26.4885 22.0997 26.2094 21.9273 26.1384L21.9193 26.1351C21.637 26.0191 21.3888 25.8803 21.2061 25.7705C20.8313 25.5452 20.434 25.26 20.0639 24.9777C19.308 24.4012 18.4217 23.6491 17.5915 22.9055C16.7583 22.1591 15.9325 21.3772 15.2976 20.7276C14.986 20.4088 14.6819 20.0827 14.4383 19.7883C14.3213 19.647 14.1706 19.4561 14.0327 19.2418C13.9646 19.136 13.8633 18.9689 13.7689 18.7596C13.6987 18.6039 13.5031 18.1521 13.4863 17.5444C13.4593 16.5672 13.7613 15.7907 14.1156 15.1725C14.3667 14.7343 14.7223 14.2521 15.0353 13.8277C15.0687 13.7824 15.1016 13.7378 15.1338 13.6939L15.1387 13.6874C15.1399 13.6857 15.1412 13.6839 15.1425 13.6822C15.2471 13.5411 15.4999 13.2 14.9569 12.0502C14.7744 11.6718 14.2762 10.9579 13.5208 10.0141C13.0597 9.43803 12.6446 8.94613 12.2535 8.4827C12.0001 8.1824 11.7568 7.89404 11.5175 7.60247L11.4273 7.4942L11.4179 7.48268C11.1903 7.20394 11.0225 7.09077 10.9402 7.04717C10.9233 7.03822 10.9077 7.03082 10.8926 7.02475C10.7159 7.1028 10.4776 7.23285 10.1879 7.41567C9.89858 7.59827 9.61197 7.7989 9.34245 7.99272C9.30002 8.02323 9.25055 8.05912 9.19684 8.0981C9.00012 8.24083 8.7464 8.42493 8.57228 8.53782C8.55818 8.54762 8.53882 8.56099 8.5182 8.57491C8.48925 8.59445 8.44784 8.6219 8.39739 8.65325C7.62118 9.1487 7.29731 9.68576 7.22518 9.91833C7.04618 10.4997 6.94481 10.9889 7.03117 11.7071C7.12576 12.4936 7.47371 13.7491 8.55799 15.7313L8.55887 15.7329C10.5071 19.2995 12.2289 21.6325 15.03 24.5083M33.0003 29.2659C33.0013 29.2657 33.0021 29.2754 32.9993 29.2955C32.9979 29.2762 32.9992 29.2661 33.0003 29.2659ZM21.5091 30.02C18.7911 28.0539 17.6873 27.2322 15.0315 24.5098Z" fill="#606060"/>
</svg>
