<svg width="40" height="40" viewBox="0 0 40 40" fill="none" xmlns="http://www.w3.org/2000/svg">
<path fill-rule="evenodd" clip-rule="evenodd" d="M23.7906 4.95167C21.9734 4.33465 20.0258 4 18 4C8.05887 4 0 12.0589 0 22C0 31.9411 8.05887 40 18 40C27.9411 40 36 31.9411 36 22C36 20.2248 35.743 18.5097 35.2643 16.8897C34.5992 17.2777 33.8255 17.5 33 17.5C32.7605 17.5 32.5254 17.4813 32.296 17.4453C32.7532 18.8817 33 20.412 33 22C33 30.2843 26.2843 37 18 37C9.71573 37 3 30.2843 3 22C3 13.7157 9.71573 7 18 7C19.7584 7 21.4462 7.30258 23.0141 7.85851C23.0047 7.74023 23 7.62067 23 7.5C23 6.55399 23.2919 5.67616 23.7906 4.95167Z" fill="#CFD3D2"/>
<path fill-rule="evenodd" clip-rule="evenodd" d="M27.5 6L38.5 6C39.3284 6 40 6.67157 40 7.5C40 8.32843 39.3284 9 38.5 9L27.5 9C26.6716 9 26 8.32843 26 7.5C26 6.67157 26.6716 6 27.5 6Z" fill="#CFD3D2"/>
<path fill-rule="evenodd" clip-rule="evenodd" d="M34.5 2L34.5 13C34.5 13.8284 33.8284 14.5 33 14.5C32.1716 14.5 31.5 13.8284 31.5 13L31.5 2C31.5 1.17157 32.1716 0.5 33 0.5C33.8284 0.5 34.5 1.17157 34.5 2Z" fill="#CFD3D2"/>
<circle cx="24" cy="18" r="3" fill="#CFD3D2"/>
<path d="M18 34C22.9706 34 27 29.9706 27 25H9C9 29.9706 13.0294 34 18 34Z" fill="#CFD3D2"/>
<circle cx="12" cy="18" r="3" fill="#CFD3D2"/>
</svg>
