<svg width="40" height="40" viewBox="0 0 40 40" fill="none" xmlns="http://www.w3.org/2000/svg">
<path d="M3.5 38C2.6 38 2 37.4 2 36.5V26.5C2 25.6 2.6 25 3.5 25C4.4 25 5 25.6 5 26.5V36.5C5 37.4 4.4 38 3.5 38Z" fill="#606060"/>
<path d="M13.5 38H3.5C2.6 38 2 37.4 2 36.5C2 35.6 2.6 35 3.5 35H13.5C14.4 35 15 35.6 15 36.5C15 37.4 14.4 38 13.5 38Z" fill="#606060"/>
<path d="M36.5 15C35.6 15 35 14.4 35 13.5V3.5C35 2.6 35.6 2 36.5 2C37.4 2 38 2.6 38 3.5V13.5C38 14.4 37.4 15 36.5 15Z" fill="#606060"/>
<path d="M36.5 5H26.5C25.6 5 25 4.4 25 3.5C25 2.6 25.6 2 26.5 2H36.5C37.4 2 38 2.6 38 3.5C38 4.4 37.4 5 36.5 5Z" fill="#606060"/>
<path d="M23.3 18.2001C22.85 18.2001 22.55 18.0501 22.25 17.7501C21.65 17.1501 21.65 16.2501 22.25 15.6501L35 2.90007C35.6 2.30007 36.5 2.30007 37.1 2.90007C37.7 3.50007 37.7 4.40007 37.1 5.00007L24.35 17.7501C24.2 18.0501 23.75 18.2001 23.3 18.2001Z" fill="#606060"/>
<path d="M3.80002 37.7001C3.35002 37.7001 3.05002 37.5501 2.75002 37.2501C2.15002 36.6501 2.15002 35.7501 2.75002 35.1501L15.5 22.4001C16.1 21.8001 17 21.8001 17.6 22.4001C18.2 23.0001 18.2 23.9001 17.6 24.5001L4.85002 37.2501C4.55002 37.5501 4.25002 37.7001 3.80002 37.7001Z" fill="#606060"/>
</svg>
