<svg width="42" height="40" viewBox="0 0 42 40" fill="none" xmlns="http://www.w3.org/2000/svg">
<path fill-rule="evenodd" clip-rule="evenodd" d="M4.15651 33.5L6.71651 26.1H18.3279L20.9679 33.5H24.9614L14.1071 4.5H10.9695L0.488037 33.5H4.15651ZM24.2974 12.928L23.8926 13.1285L25.0383 16.1836L25.535 15.9352C28.2438 14.5808 30.7188 13.92 32.9674 13.92C34.5678 13.92 35.6753 14.3029 36.3839 14.9804C37.0882 15.6539 37.4834 16.7003 37.4834 18.216V21.3205C33.1439 21.6931 30.0045 22.1228 28.0907 22.6158C26.8585 22.9318 25.7956 23.5502 24.9107 24.4656C24.008 25.3697 23.5354 26.4309 23.5354 27.632C23.5354 28.0251 23.5505 28.5038 23.5801 29.0663L23.5808 29.0793L23.5822 29.0923C23.6499 29.7363 23.8853 30.3776 24.2667 31.0133C25.3592 32.8341 27.3703 33.676 30.1074 33.676H30.2394C30.8756 33.676 31.8574 33.5087 33.1495 33.2003C34.3121 32.9229 35.7575 32.5233 37.4834 32.0027V33.5H41.3434V17.248C41.3434 15.6339 41.0098 14.3101 40.2762 13.341C39.5782 12.3904 38.6601 11.6644 37.5342 11.1625C36.409 10.6183 34.857 10.368 32.9234 10.368H32.9143L32.9051 10.3683C30.4033 10.4599 27.5303 11.3264 24.2974 12.928ZM25.7628 15.2676C25.6129 15.339 25.4625 15.4125 25.3114 15.488C25.4625 15.4125 25.6129 15.339 25.7628 15.2676ZM28.2154 23.1C28.2154 23.1 28.2154 23.1 28.2154 23.1C28.2154 23.1 28.2154 23.1 28.2154 23.1M27.7864 26.4129C28.1695 25.9811 28.7724 25.6128 29.6427 25.3366L29.6457 25.3356C30.6366 25.0142 33.2298 24.548 37.4834 23.94V29.3255C35.3531 30.212 33.2182 30.652 31.0754 30.652C29.6691 30.652 28.7048 30.3937 28.1025 29.9556C27.5298 29.5391 27.2194 28.9121 27.2194 27.984C27.2194 27.3484 27.4119 26.8349 27.7864 26.4129ZM37.9834 23.364C37.8144 23.3878 37.6477 23.4115 37.4834 23.4349C37.6477 23.4115 37.8144 23.3878 37.9834 23.364ZM31.0754 31.152C30.8939 31.152 30.7181 31.1479 30.5479 31.1396C30.7181 31.1479 30.8939 31.152 31.0754 31.152C31.0754 31.152 31.0754 31.152 31.0754 31.152ZM28.0127 30.4958C27.1505 29.972 26.7194 29.1348 26.7194 27.984C26.7194 26.862 27.2392 25.9958 28.2787 25.3853C27.2391 25.9958 26.7194 26.862 26.7194 27.984C26.7194 29.1348 27.1505 29.972 28.0127 30.4958ZM29.4914 24.86C29.7527 24.7753 30.1152 24.682 30.5789 24.5802C30.1152 24.682 29.7527 24.7753 29.4914 24.86C29.4913 24.86 29.4913 24.86 29.4912 24.8601C29.4913 24.86 29.4913 24.86 29.4914 24.86ZM17.2508 23.1H7.74148L12.409 9.55011L17.2508 23.1Z" fill="#606060"/>
</svg>
