<svg width="40" height="40" viewBox="0 0 40 40" fill="none" xmlns="http://www.w3.org/2000/svg">
<path fill-rule="evenodd" clip-rule="evenodd" d="M20 33C28.2843 33 35 26.2843 35 18C35 9.71573 28.2843 3 20 3C11.7157 3 5 9.71573 5 18C5 26.2843 11.7157 33 20 33ZM20 36C29.9411 36 38 27.9411 38 18C38 8.05887 29.9411 0 20 0C10.0589 0 2 8.05887 2 18C2 27.9411 10.0589 36 20 36Z" fill="#000"/>
<path fill-rule="evenodd" clip-rule="evenodd" d="M20 16C20.8284 16 21.5 16.6716 21.5 17.5L21.5 25.5C21.5 26.3284 20.8284 27 20 27C19.1716 27 18.5 26.3284 18.5 25.5L18.5 17.5C18.5 16.6716 19.1716 16 20 16Z" fill="#000"/>
<path d="M21.5 11.5C21.5 12.3284 20.8284 13 20 13C19.1716 13 18.5 12.3284 18.5 11.5C18.5 10.6716 19.1716 10 20 10C20.8284 10 21.5 10.6716 21.5 11.5Z" fill="#000"/>
</svg>
