<svg width="40" height="40" viewBox="0 0 40 40" fill="none" xmlns="http://www.w3.org/2000/svg">
<path d="M35.312 10.7671C34.3812 8.89763 33.114 7.30972 31.5495 6.05816C29.9694 4.79878 28.1469 3.84447 26.1287 3.22652C24.095 2.60074 21.9673 2.28003 19.8006 2.28003C17.2896 2.28003 14.9038 2.73372 12.698 3.61763C10.4843 4.51718 8.52091 5.76874 6.87824 7.33318C5.23558 8.89763 3.91362 10.7828 2.95931 12.9183C2.005 15.0537 1.52002 17.4082 1.52002 19.9191C1.52002 22.477 1.95806 24.8628 2.83415 26.9983C3.71024 29.1494 4.95397 31.0189 6.53406 32.552C8.11415 34.093 10.0462 35.3055 12.2912 36.1737C14.5284 37.042 17.055 37.48 19.8006 37.48C22.6791 37.48 25.4404 37.0185 28.0217 36.0955C29.9225 35.4228 31.6512 34.445 33.1766 33.1856C33.5442 32.8806 33.7632 32.4503 33.7945 31.9732C33.8258 31.5039 33.6615 31.0502 33.3408 30.6982C32.7385 30.0489 31.7451 29.9707 31.0411 30.5104C29.8286 31.4491 28.5223 32.2235 27.1534 32.8258C25.2292 33.6784 22.906 34.1087 20.2308 34.1087C18.0953 34.1087 16.1085 33.7801 14.3328 33.1309C12.5415 32.4738 10.101 31.5195 8.81033 30.2914C7.51184 29.0477 6.49495 27.5458 5.79095 25.8249C5.07913 24.0806 4.47682 22.1172 4.47682 19.9661C4.47682 17.9401 4.90704 16.0315 5.58757 14.2871C6.26029 12.5506 7.46491 10.9314 8.693 9.6251C9.92891 8.32661 12.2286 7.38012 13.9574 6.64483C15.6939 5.90954 17.626 5.5419 19.7067 5.5419C21.6075 5.5419 23.3988 5.80785 25.0102 6.32412C26.6294 6.84821 28.0452 7.63825 29.2342 8.67861C30.4231 9.72679 31.3618 11.0331 32.0189 12.5506C32.6838 14.0759 33.0201 15.8438 33.0201 17.8071C33.0201 20.1225 32.5899 22.0155 31.7373 23.4157C30.9003 24.7767 30.032 26.1847 28.2798 25.5981C26.6528 25.0583 26.7858 21.6713 26.8327 20.5606C26.8327 20.4823 26.8406 20.4276 26.8406 20.3807C26.8484 19.8096 26.8484 19.3247 26.8327 18.8788V18.871V18.8631L26.997 12.1595C27.0126 11.6198 26.778 11.1035 26.3712 10.7515C25.9566 10.3995 25.4169 10.2509 24.8772 10.3526C24.0402 10.509 23.4222 11.2365 23.4066 12.0891L23.3988 12.3238L23.1094 12.3159C21.7326 11.3538 20.0509 10.7828 18.2439 10.7828C13.5506 10.7828 9.74118 14.5922 9.74118 19.2855C9.74118 23.9789 13.5506 27.7883 18.2439 27.7883C20.661 27.7883 22.8434 26.7792 24.3922 25.16L24.4861 25.1444C24.5174 25.3243 24.5486 25.5199 24.5799 25.7154C24.7051 26.4742 24.8459 27.3346 25.1666 27.8665C25.589 28.5471 26.4416 28.8912 27.7166 28.8912C28.9995 28.8912 29.8599 28.6331 30.9081 28.1794C32.0189 27.7023 32.9888 26.9904 33.8571 26.0205C34.7175 25.0583 35.4215 23.8459 35.9378 22.4144C36.4541 20.9908 36.72 19.309 36.72 17.416C36.72 14.8816 36.2507 12.6445 35.312 10.7671ZM18.2439 24.589C15.3184 24.589 12.9405 22.2111 12.9405 19.2855C12.9405 16.36 15.3184 13.9821 18.2439 13.9821C21.1694 13.9821 23.5474 16.36 23.5474 19.2855C23.5474 22.2111 21.1694 24.589 18.2439 24.589Z" fill="#606060"/>
</svg>
