<svg width="41" height="48" viewBox="0 0 41 48" fill="none" xmlns="http://www.w3.org/2000/svg">
<path fill-rule="evenodd" clip-rule="evenodd" d="M36 14H12C11.4477 14 11 14.4477 11 15V33C11 33.5523 11.4477 34 12 34H36C36.5523 34 37 33.5523 37 33V15C37 14.4477 36.5523 14 36 14ZM12 11C9.79086 11 8 12.7909 8 15V33C8 35.2091 9.79086 37 12 37H36C38.2091 37 40 35.2091 40 33V15C40 12.7909 38.2091 11 36 11H12Z" fill="#606060"/>
<path fill-rule="evenodd" clip-rule="evenodd" d="M3.8207 9.44655L27.0029 3.2349C27.5364 3.09195 28.0847 3.40854 28.2277 3.942L29.5829 9H32.6888L31.1254 3.16555C30.5537 1.03168 28.3603 -0.234649 26.2265 0.337119L3.04424 6.54878C0.910374 7.12054 -0.355956 9.31389 0.215811 11.4478L4.87455 28.8344C5.07483 29.5819 5.47406 30.2229 6 30.7157V21.4435L3.11359 10.6713C2.97065 10.1378 3.28723 9.58949 3.8207 9.44655Z" fill="#606060"/>
<path fill-rule="evenodd" clip-rule="evenodd" d="M21 22C22.1046 22 23 21.1046 23 20C23 18.8954 22.1046 18 21 18C19.8954 18 19 18.8954 19 20C19 21.1046 19.8954 22 21 22ZM21 25C23.7614 25 26 22.7614 26 20C26 17.2386 23.7614 15 21 15C18.2386 15 16 17.2386 16 20C16 22.7614 18.2386 25 21 25Z" fill="#606060"/>
<path fill-rule="evenodd" clip-rule="evenodd" d="M14.4393 24.4393C15.0251 23.8535 15.9748 23.8535 16.5606 24.4393L21.5337 29.4123L28.4741 22.9057C29.0384 22.3766 29.9124 22.3635 30.4924 22.8752L38.9924 30.3752C39.6136 30.9233 39.6728 31.8712 39.1247 32.4924C38.5766 33.1136 37.6287 33.1728 37.0075 32.6247L29.5306 26.0274L22.5259 32.5943C21.9353 33.148 21.0118 33.1331 20.4393 32.5606L15.5 27.6213L10.5606 32.5606C9.97485 33.1464 9.0251 33.1464 8.43931 32.5606C7.85353 31.9748 7.85353 31.0251 8.43931 30.4393L14.4393 24.4393Z" fill="#606060"/>
</svg>
