<svg width="40" height="40" viewBox="0 0 40 40" fill="none" xmlns="http://www.w3.org/2000/svg">
<path fill-rule="evenodd" clip-rule="evenodd" d="M14.2552 3.78908C14.7349 2.70166 15.8114 2 17 2H33.465L26.465 13H30.0493C33.6333 13 35.4086 17.3506 32.8478 19.858L15.3493 36.9921C12.0689 40.2041 6.84494 36.2606 9.03534 32.2257L12.9578 25H11.0341C8.14421 25 6.20797 22.0295 7.37446 19.3854L14.2552 3.78908ZM18 22L11.6719 33.6569C11.1243 34.6657 12.4303 35.6516 13.2504 34.8485L30.749 17.7145C31.3892 17.0877 30.9453 16 30.0493 16H21L28 5H17L10.1192 20.5964C9.82759 21.2574 10.3116 22 11.0341 22H18Z" fill="#000"/>
</svg>
