<svg width="30" height="30" viewBox="0 0 30 30" fill="none" xmlns="http://www.w3.org/2000/svg">
<path fill-rule="evenodd" clip-rule="evenodd" d="M15 29C14.1716 29 13.5 28.3284 13.5 27.5L13.5 2.5C13.5 1.67157 14.1716 1 15 1V1C15.8284 1 16.5 1.67157 16.5 2.5V27.5C16.5 28.3284 15.8284 29 15 29V29Z" fill="#D1D2D3"/>
<path fill-rule="evenodd" clip-rule="evenodd" d="M1 15C1 14.1716 1.67157 13.5 2.5 13.5L27.5 13.5C28.3284 13.5 29 14.1716 29 15V15C29 15.8284 28.3284 16.5 27.5 16.5L2.5 16.5C1.67157 16.5 1 15.8284 1 15V15Z" fill="#D1D2D3"/>
</svg>
