<svg width="32" height="32" viewBox="0 0 32 32" fill="none" xmlns="http://www.w3.org/2000/svg">
<path fill-rule="evenodd" clip-rule="evenodd" d="M19.5025 26.35C18.6217 26.6547 17.6953 26.8632 16.7202 26.936C10.6025 27.3928 5.2813 22.8123 4.82546 16.707C4.76731 15.9282 4.79398 15.1696 4.89222 14.4255C5.56281 9.33127 9.73542 5.22332 15.0694 4.82506C21.1871 4.36829 26.5083 8.9488 26.945 15.0555C27.1091 17.2534 26.6187 19.3541 25.6385 21.1596C25.6279 21.1782 25.6168 21.1968 25.6056 21.2156C25.5751 21.2668 25.544 21.319 25.52 21.3742C25.404 21.6215 25.3482 21.904 25.3697 22.194L25.3701 22.1962L26.8114 26.9673C26.8137 26.975 26.8066 26.9821 26.7989 26.9798L22.318 25.6088C22.1141 25.5377 21.894 25.5077 21.6645 25.5248C21.4629 25.5399 21.2642 25.5937 21.0864 25.6784C21.0845 25.6793 21.0831 25.681 21.0817 25.6828C21.0805 25.6844 21.0792 25.6861 21.0774 25.687C21.0755 25.6881 21.0728 25.6885 21.07 25.6887C21.0687 25.6888 21.0674 25.6892 21.0662 25.6898C21.0515 25.6972 21.0382 25.7046 21.0249 25.712C21.011 25.7197 20.9972 25.7273 20.9817 25.7351C20.5063 25.9764 20.0083 26.1728 19.5025 26.35ZM29.937 14.8368C29.3789 7.06801 22.6099 1.2537 14.846 1.83339C8.06811 2.33945 2.77097 7.55756 1.91803 14.0328M29.937 14.8368C30.1317 17.4548 29.5937 19.9706 28.4955 22.168L29.6832 26.0998C30.3794 28.4042 28.223 30.5528 25.9212 29.8485L21.9051 28.6197C21.416 28.8439 20.937 29.0263 20.4941 29.1814L20.4833 29.1852C19.3863 29.5646 18.2052 29.8335 16.9436 29.9277C9.17627 30.5076 2.41319 24.6906 1.83379 16.9304C1.75964 15.9373 1.79404 14.9724 1.91788 14.034" fill="#B4B3B7"/>
<path fill-rule="evenodd" clip-rule="evenodd" d="M22 13.5C22 14.3284 21.3284 15 20.5 15H11.5C10.6716 15 10 14.3284 10 13.5V13.5C10 12.6716 10.6716 12 11.5 12H20.5C21.3284 12 22 12.6716 22 13.5V13.5Z" fill="#B4B3B7"/>
<path fill-rule="evenodd" clip-rule="evenodd" d="M20 19.5C20 20.3284 19.3284 21 18.5 21H11.5C10.6716 21 10 20.3284 10 19.5V19.5C10 18.6716 10.6716 18 11.5 18H18.5C19.3284 18 20 18.6716 20 19.5V19.5Z" fill="#B4B3B7"/>
</svg>
