<svg width="30" height="30" viewBox="0 0 30 30" fill="none" xmlns="http://www.w3.org/2000/svg">
<path d="M14.7142 8.97619H18.9525L20.6308 2.26286C20.674 2.05418 20.7588 1.85636 20.8802 1.68124C21.0016 1.50612 21.1571 1.3573 21.3374 1.24371C21.5177 1.13012 21.719 1.05409 21.9294 1.02018C22.1398 0.986268 22.3548 0.995167 22.5617 1.04635C22.7685 1.09753 22.9629 1.18993 23.1332 1.31803C23.3035 1.44613 23.4462 1.60728 23.5527 1.79183C23.6592 1.97639 23.7274 2.18054 23.7531 2.39207C23.7789 2.6036 23.7617 2.81815 23.7025 3.02286L22.2142 8.97619H25.9167C26.3366 8.97619 26.7393 9.14301 27.0363 9.43994C27.3332 9.73687 27.5 10.1396 27.5 10.5595C27.5 10.9795 27.3332 11.3822 27.0363 11.6791C26.7393 11.976 26.3366 12.1429 25.9167 12.1429H21.4225L19.8392 18.4762H23.75C24.1699 18.4762 24.5727 18.643 24.8696 18.9399C25.1665 19.2369 25.3333 19.6396 25.3333 20.0595C25.3333 20.4795 25.1665 20.8822 24.8696 21.1791C24.5727 21.476 24.1699 21.6429 23.75 21.6429H19.0475L17.3692 28.372C17.3182 28.5737 17.2281 28.7634 17.1038 28.9302C16.9796 29.0971 16.8237 29.2378 16.645 29.3444C16.4664 29.451 16.2685 29.5214 16.0627 29.5515C15.8569 29.5816 15.6471 29.5709 15.4454 29.5199C15.2437 29.469 15.054 29.3788 14.8872 29.2546C14.7204 29.1303 14.5796 28.9744 14.473 28.7958C14.3664 28.6172 14.2961 28.4193 14.266 28.2135C14.2358 28.0076 14.2466 27.7979 14.2975 27.5962L15.7858 21.6429H11.5475L9.86917 28.372C9.81822 28.5737 9.72806 28.7634 9.60381 28.9302C9.47956 29.0971 9.32367 29.2378 9.14503 29.3444C8.9664 29.451 8.76851 29.5214 8.56268 29.5515C8.35685 29.5816 8.14711 29.5709 7.94542 29.5199C7.74373 29.469 7.55405 29.3788 7.38721 29.2546C7.22037 29.1303 7.07963 28.9744 6.97304 28.7958C6.86644 28.6172 6.79608 28.4193 6.76596 28.2135C6.73584 28.0076 6.74656 27.7979 6.7975 27.5962L8.28583 21.6429H4.58333C4.16341 21.6429 3.76068 21.476 3.46375 21.1791C3.16681 20.8822 3 20.4795 3 20.0595C3 19.6396 3.16681 19.2369 3.46375 18.9399C3.76068 18.643 4.16341 18.4762 4.58333 18.4762H9.0775L10.6608 12.1429H6.75C6.33007 12.1429 5.92735 11.976 5.63041 11.6791C5.33348 11.3822 5.16667 10.9795 5.16667 10.5595C5.16667 10.1396 5.33348 9.73687 5.63041 9.43994C5.92735 9.14301 6.33007 8.97619 6.75 8.97619H11.4525L13.1308 2.26286C13.174 2.05418 13.2588 1.85636 13.3802 1.68124C13.5016 1.50612 13.6571 1.3573 13.8374 1.24371C14.0177 1.13012 14.219 1.05409 14.4294 1.02018C14.6398 0.986268 14.8548 0.995167 15.0617 1.04635C15.2685 1.09753 15.4629 1.18993 15.6332 1.31803C15.8035 1.44613 15.9462 1.60728 16.0527 1.79183C16.1592 1.97639 16.2274 2.18054 16.2531 2.39207C16.2789 2.6036 16.2617 2.81815 16.2025 3.02286L14.7142 8.97619ZM13.9225 12.1429L12.3392 18.4762H16.5775L18.1608 12.1429H13.9225Z" fill="#000"/>
</svg>
