<svg width="33" height="33" viewBox="0 0 33 33" fill="none" xmlns="http://www.w3.org/2000/svg">
<path fill-rule="evenodd" clip-rule="evenodd" d="M21.4644 3.00002L14 3C12.3432 3 11 4.34314 11 6L11 21C11 22.6569 12.3432 24 14 24H25C26.6569 24 28 22.6569 28 21V9.53563L21.4644 3.00002ZM30.8535 8.1465L22.8535 0.146502C22.7598 0.0527518 22.6328 1.74179e-05 22.5 1.74179e-05L14 0C10.6863 -6.79034e-06 8 2.68629 8 6L8 21C8 24.3137 10.6863 27 14 27H25C28.3137 27 31 24.3137 31 21V8.50002C31 8.36721 30.9473 8.24025 30.8535 8.1465Z" fill="black"/>
<path fill-rule="evenodd" clip-rule="evenodd" d="M8 7C4.6863 7 2 9.68629 2 13L2 27C2 30.3137 4.68629 33 8 33H17C20.3137 33 23 30.3137 23 27H20C20 28.6569 18.6569 30 17 30H8C6.34315 30 5 28.6569 5 27L5 13C5 11.3431 6.34315 10 8 10L8 7Z" fill="black"/>
<path fill-rule="evenodd" clip-rule="evenodd" d="M19.5 6C20.3284 6 21 6.67157 21 7.5L21 10.5C21 10.7761 21.2239 11 21.5 11H24.5C25.3284 11 26 11.6716 26 12.5C26 13.3284 25.3284 14 24.5 14H21.5C19.567 14 18 12.433 18 10.5L18 7.5C18 6.67157 18.6716 6 19.5 6Z" fill="black"/>
</svg>
