<svg width="40" height="40" viewBox="0 0 40 40" fill="none" xmlns="http://www.w3.org/2000/svg">
<path fill-rule="evenodd" clip-rule="evenodd" d="M16 22C19.4782 22 23 18.5928 23 13.5C23 8.40718 19.4782 5 16 5C12.5218 5 9 8.40718 9 13.5C9 18.5928 12.5218 22 16 22ZM26 13.5C26 19.8423 21.515 25 16 25C10.485 25 6 19.8423 6 13.5C6 7.15775 10.485 2 16 2C21.515 2 26 7.15775 26 13.5Z" fill="#ACAEAF"/>
<path fill-rule="evenodd" clip-rule="evenodd" d="M21.0767 24.2505C19.6619 24.082 18.1341 24 16.5 24C6.15447 24 0.0654649 27.2875 0.00052477 35C0.000175015 35.0415 0 35.0832 0 35.125V38H21.2521C20.5957 37.0876 20.0643 36.0792 19.6828 35H3.00064C3.03061 32.1022 4.10672 30.3527 5.96548 29.1643C8.07977 27.8126 11.5223 27 16.5 27C17.6244 27 18.6705 27.0415 19.6407 27.1212C19.9912 26.0946 20.4769 25.1306 21.0767 24.2505Z" fill="#ACAEAF"/>
<path fill-rule="evenodd" clip-rule="evenodd" d="M31 37C34.3137 37 37 34.3137 37 31C37 27.6863 34.3137 25 31 25C27.6863 25 25 27.6863 25 31C25 34.3137 27.6863 37 31 37ZM31 40C35.9706 40 40 35.9706 40 31C40 26.0294 35.9706 22 31 22C26.0294 22 22 26.0294 22 31C22 35.9706 26.0294 40 31 40Z" fill="#ACAEAF"/>
</svg>
