<svg width="40" height="40" viewBox="0 0 40 40" fill="none" xmlns="http://www.w3.org/2000/svg">
<path fill-rule="evenodd" clip-rule="evenodd" d="M20 22C23.4782 22 27 18.5928 27 13.5C27 8.40718 23.4782 5 20 5C16.5218 5 13 8.40718 13 13.5C13 18.5928 16.5218 22 20 22ZM30 13.5C30 19.8423 25.515 25 20 25C14.485 25 10 19.8423 10 13.5C10 7.15775 14.485 2 20 2C25.515 2 30 7.15775 30 13.5Z" fill="black"/>
<path fill-rule="evenodd" clip-rule="evenodd" d="M4 38V35.125C4 35.0832 4.00018 35.0415 4.00052 35C4.06546 27.2875 10.1545 24 20.5 24C30.8455 24 36.9345 27.2875 36.9995 35C36.9998 35.0415 37 35.0832 37 35.125V38H4ZM33.9994 35C33.9694 32.1022 32.8933 30.3527 31.0345 29.1643C28.9202 27.8126 25.4777 27 20.5 27C15.5223 27 12.0798 27.8126 9.96548 29.1643C8.10672 30.3527 7.03061 32.1022 7.00064 35H33.9994Z" fill="black"/>
</svg>
