<svg width="45" height="45" viewBox="0 0 45 45" fill="none" xmlns="http://www.w3.org/2000/svg">
<path fill-rule="evenodd" clip-rule="evenodd" d="M25.4644 5.00002L11 5C9.3432 5 8 6.34314 8 8V39C8 40.6569 9.3432 42 11 42H32C33.6569 42 35 40.6569 35 39V14.5356L25.4644 5.00002ZM37.8535 13.1465L26.8535 2.1465C26.7598 2.05275 26.6328 2.00002 26.5 2.00002L11 2C7.6863 1.99999 5 4.68629 5 8V39C5 42.3137 7.6863 45 11 45H32C35.3137 45 38 42.3137 38 39V13.5C38 13.3672 37.9473 13.2402 37.8535 13.1465Z" fill="#000"/>
<path fill-rule="evenodd" clip-rule="evenodd" d="M19.5 9C20.3284 9 21 9.67157 21 10.5V18.5C21 18.7761 21.2239 19 21.5 19H29.5C30.3284 19 31 19.6716 31 20.5C31 21.3284 30.3284 22 29.5 22H21.5C19.567 22 18 20.433 18 18.5V10.5C18 9.67157 18.6716 9 19.5 9Z" fill="#000"/>
</svg>
