<svg width="44" height="44" viewBox="0 0 44 44" fill="none" xmlns="http://www.w3.org/2000/svg">
<path fill-rule="evenodd" clip-rule="evenodd" d="M8 15V37.5C8 41.1187 10.8542 44 14.4998 44H29.4998C33.1453 44 36 41.1187 36 37.5V15H8ZM29.2773 41.125C31.4996 41.1037 32.9996 39.5625 32.9996 37V18H11V37C11 39.5837 11.4996 41.125 14.1043 41.125H29.2773Z" fill="#E01E5A"/>
<path d="M26.5 37C27.328 37 28 36.0095 28 35.5V23.5C28 22.9905 27.328 22 26.5 22C25.672 22 25 22.9905 25 23.5V35.5C25 36.0095 25.672 37 26.5 37Z" fill="#E01E5A"/>
<path d="M17.5 37C18.328 37 19 36.0095 19 35.5V23.5C19 22.9905 18.328 22 17.5 22C16.672 22 16 22.9905 16 23.5V35.5C16 36.0095 16.672 37 17.5 37Z" fill="#E01E5A"/>
<path fill-rule="evenodd" clip-rule="evenodd" d="M35 10H9C8.44772 10 8 10.4477 8 11V15H36V11C36 10.4477 35.5523 10 35 10ZM9 7C6.79086 7 5 8.79086 5 11V16C5 17.1046 5.89543 18 7 18H37C38.1046 18 39 17.1046 39 16V11C39 8.79086 37.2091 7 35 7H9Z" fill="#E01E5A"/>
<path fill-rule="evenodd" clip-rule="evenodd" d="M26 3H18C17.4477 3 17 3.44772 17 4V7H27V4C27 3.44772 26.5523 3 26 3ZM18 0C15.7909 0 14 1.79086 14 4V8C14 9.10457 14.8954 10 16 10H28C29.1046 10 30 9.10457 30 8V4C30 1.79086 28.2091 0 26 0H18Z" fill="#E01E5A"/>
</svg>
