<svg width="44" height="44" viewBox="0 0 44 44" fill="none" xmlns="http://www.w3.org/2000/svg">
<path fill-rule="evenodd" clip-rule="evenodd" d="M6.78002 36.2377L20.4027 30.4227L35.9025 15.0476C35.9032 15.0469 35.9039 15.0462 35.9046 15.0455C37.7136 13.2429 38.0474 11.9075 37.9947 11.0067C37.9368 10.0164 37.3687 8.77825 35.9025 7.31787L35.9024 7.31781C35.8724 7.28795 35.8424 7.25835 35.8124 7.22903C34.3684 5.81809 33.0445 5.1748 32.0416 5.03238C31.175 4.9093 30.3206 5.11422 29.4199 6.01132L29.4159 6.01533L12.6081 22.693L6.78002 36.2377ZM38.0196 17.1732L22.3886 32.6784C22.1658 32.9003 21.9431 33.1221 21.7203 33.1221L6.12758 39.7781C5.90482 40 5.45931 40 5.23656 40C4.5683 40 4.1228 39.7781 3.67729 39.3344C3.00903 38.6688 2.78627 37.7813 3.23178 36.8939L9.91438 21.3631C9.91438 21.1413 10.1371 20.9194 10.3599 20.6975L27.3028 3.88578C30.3885 0.812366 34.4435 1.69711 37.909 5.08328C37.9459 5.11934 37.9828 5.15569 38.0196 5.19233C41.5094 8.66825 42.4499 12.7605 38.0196 17.1732Z" fill="#B4B3B7"/>
<path d="M34.5455 20C34.1091 20 33.8182 19.8364 33.5273 19.5091L24.4364 9.78181C23.8545 9.12727 23.8545 8.14545 24.4364 7.49091C25.0182 6.83636 25.8909 6.83636 26.4727 7.49091L35.5636 17.2182C36.1455 17.8727 36.1455 18.8545 35.5636 19.5091C35.2727 19.8364 34.9818 20 34.5455 20Z" fill="#B4B3B7"/>
</svg>
