<svg width="40" height="40" viewBox="0 0 40 40" fill="none" xmlns="http://www.w3.org/2000/svg">
<path fill-rule="evenodd" clip-rule="evenodd" d="M10 26V33C10 35.2091 11.7909 37 14 37H34C36.2091 37 38 35.2091 38 33V7C38 4.79086 36.2091 3 34 3H21V6H34C34.5523 6 35 6.44772 35 7V33C35 33.5523 34.5523 34 34 34H14C13.4477 34 13 33.5523 13 33V26H10Z" fill="#A09FA3"/>
<path fill-rule="evenodd" clip-rule="evenodd" d="M31 16.5C31 17.3284 30.3284 18 29.5 18L23.5 18C22.6716 18 22 17.3284 22 16.5C22 15.6716 22.6716 15 23.5 15L29.5 15C30.3284 15 31 15.6716 31 16.5Z" fill="#A09FA3"/>
<path fill-rule="evenodd" clip-rule="evenodd" d="M32 22.5C32 23.3284 31.3284 24 30.5 24L21.5 24C20.6716 24 20 23.3284 20 22.5C20 21.6716 20.6716 21 21.5 21L30.5 21C31.3284 21 32 21.6716 32 22.5Z" fill="#A09FA3"/>
<path fill-rule="evenodd" clip-rule="evenodd" d="M30 28.5C30 29.3284 29.3284 30 28.5 30L19.5 30C18.6716 30 18 29.3284 18 28.5C18 27.6716 18.6716 27 19.5 27L28.5 27C29.3284 27 30 27.6716 30 28.5Z" fill="#A09FA3"/>
<path fill-rule="evenodd" clip-rule="evenodd" d="M9.98499 2.56988C10.522 1.64081 11.6464 0.5 13.5 0.5C14.8731 0.5 15.9401 1.13692 16.6451 1.77948C17.8196 2.85005 18 4.37762 18 5.41641V15.6356C18 17.9889 17.1203 21.068 14.366 22.2926C13.4338 22.7071 12.316 23 11 23C9.684 23 8.56624 22.7071 7.63395 22.2926C4.87971 21.068 4 17.9889 4 15.6356V4C4 3.17157 4.67157 2.5 5.5 2.5C6.32843 2.5 7 3.17157 7 4V15.6356C7 17.5353 7.72094 19.0481 8.85282 19.5514C9.44069 19.8128 10.1449 20 11 20C11.8551 20 12.5593 19.8128 13.1472 19.5514C14.2791 19.0481 15 17.5353 15 15.6356V5.41641C15 4.59226 14.8265 4.18103 14.6242 3.99666C14.279 3.68206 13.9002 3.5 13.5 3.5C13.2447 3.5 13.0763 3.57069 12.9488 3.6584C12.806 3.75655 12.6798 3.90249 12.5824 4.0711C12.5721 4.08879 12.5483 4.13862 12.5292 4.25275C12.5091 4.37221 12.5 4.52471 12.5 4.73863V17C12.5 17.8284 11.8284 18.5 11 18.5C10.1716 18.5 9.5 17.8284 9.5 17V4.73863C9.5 4.21861 9.52608 3.36387 9.98499 2.56988Z" fill="#A09FA3"/>
</svg>
