<svg width="41" height="40" viewBox="0 0 41 40" fill="none" xmlns="http://www.w3.org/2000/svg">
<path fill-rule="evenodd" clip-rule="evenodd" d="M28.5 29C32.0899 29 35 26.0899 35 22.5C35 18.9101 32.0899 16 28.5 16C24.9101 16 22 18.9101 22 22.5C22 26.0899 24.9101 29 28.5 29ZM28.5 32C33.7467 32 38 27.7467 38 22.5C38 17.2533 33.7467 13 28.5 13C23.2533 13 19 17.2533 19 22.5C19 27.7467 23.2533 32 28.5 32Z" fill="#606060"/>
<path fill-rule="evenodd" clip-rule="evenodd" d="M1.5 13L14.5 13C15.3284 13 16 13.6716 16 14.5C16 15.3284 15.3284 16 14.5 16L1.5 16C0.671573 16 5.87108e-08 15.3284 1.31134e-07 14.5C2.03558e-07 13.6716 0.671573 13 1.5 13Z" fill="#606060"/>
<path fill-rule="evenodd" clip-rule="evenodd" d="M1.5 5.5L30.5 5.5C31.3284 5.5 32 6.17157 32 7C32 7.82843 31.3284 8.5 30.5 8.5L1.5 8.5C0.671574 8.5 5.87108e-08 7.82842 1.31134e-07 7C2.03558e-07 6.17157 0.671574 5.5 1.5 5.5Z" fill="#606060"/>
<path fill-rule="evenodd" clip-rule="evenodd" d="M1.5 21.5L11.5 21.5C12.3284 21.5 13 22.1716 13 23C13 23.8284 12.3284 24.5 11.5 24.5L1.5 24.5C0.671573 24.5 5.87108e-08 23.8284 1.31134e-07 23C2.03558e-07 22.1716 0.671573 21.5 1.5 21.5Z" fill="#606060"/>
<path fill-rule="evenodd" clip-rule="evenodd" d="M39.5606 33.5607C38.9748 34.1464 38.0251 34.1464 37.4393 33.5606L33.9395 30.0606C33.3537 29.4748 33.3537 28.5251 33.9395 27.9393C34.5253 27.3535 35.475 27.3536 36.0608 27.9394L39.5607 31.4393C40.1465 32.0251 40.1464 32.9749 39.5606 33.5607Z" fill="#606060"/>
<path fill-rule="evenodd" clip-rule="evenodd" d="M1.5 29.5L14.5 29.5C15.3284 29.5 16 30.1716 16 31C16 31.8284 15.3284 32.5 14.5 32.5L1.5 32.5C0.671573 32.5 5.87108e-08 31.8284 1.31134e-07 31C2.03558e-07 30.1716 0.671573 29.5 1.5 29.5Z" fill="#606060"/>
</svg>
