<svg width="50" height="53" viewBox="0 0 50 53" fill="none" xmlns="http://www.w3.org/2000/svg">
<path fill-rule="evenodd" clip-rule="evenodd" d="M26.5834 7.48651L26.8123 7.46563C32.6652 6.93175 38.2825 9.91974 41.5054 15.2802C44.5312 20.3141 44.8108 26.3523 42.2754 31.5595L43.3738 35.2074C43.7172 36.3501 43.5656 37.5702 42.9452 38.5746C42.3248 39.579 41.333 40.208 40.2182 40.3097C39.7802 40.3496 39.3353 40.304 38.9133 40.1702L35.2941 39.0679L35.0055 39.0942C33.3832 39.9447 31.6576 40.4867 29.8512 40.7006C30.5917 38.7781 31 36.6723 31 34.4642C31 26.5403 25.7252 19.9229 18.7167 18.3703C17.6931 18.1431 16.6418 18.02 15.5536 18.02C14.6895 18.02 13.8419 18.0955 13.0164 18.2407C13.6249 16.575 14.4941 15.0025 15.6067 13.5822C18.368 10.0453 22.2734 7.87966 26.5834 7.48651Z" fill="black"/>
<path d="M28 34.6009L28 34.4499C28 30.8253 26.62 27.4625 24.11 24.9554C21.71 22.5289 18.55 21.1999 15.22 21.1999C11.96 21.1496 8.85 22.4283 6.46 24.7943C3.87 27.3517 2.39 30.9058 2.39 34.5405C2.39 36.1213 2.67 37.6517 3.21 39.1116L2.22 41.7596C2.07 42.1623 1.99 42.5751 1.99 43.008C1.99 44.0854 2.47 45.1023 3.32 45.7769C4.16 46.4514 5.24 46.6931 6.29 46.4514L8.74 45.8775C12.51 48.1832 17.04 48.304 21.02 46.1897C25.33 43.9041 28 39.464 28 34.6009Z" fill="black"/>
</svg>
