<svg width="50" height="50" viewBox="0 0 50 50" fill="none" xmlns="http://www.w3.org/2000/svg">
<path fill-rule="evenodd" clip-rule="evenodd" d="M39.4409 28.6453C44.2761 19.9278 37.0066 9.21395 27.0727 10.0688L26.8836 10.0851L26.8537 10.0876C22.2187 10.4865 18.3719 13.251 16.4004 17.0235C16.1205 17.0079 15.8384 17 15.5536 17C14.6895 17 13.8419 17.0712 13.0164 17.2081C13.6249 15.6367 14.4941 14.1533 15.6067 12.8133C18.368 9.47665 22.2734 7.43357 26.5834 7.06267L26.8123 7.04297C32.6652 6.53931 38.2825 9.35818 41.5054 14.4153C44.5312 19.1641 44.8108 24.8606 42.2754 29.7731L43.3738 33.2145C43.7172 34.2925 43.5656 35.4435 42.9452 36.3911C42.3248 37.3386 41.333 37.932 40.2182 38.0279C39.7802 38.0656 39.3353 38.0226 38.9133 37.8964L35.2941 36.8564L35.0055 36.8813C33.3832 37.6836 31.6575 38.1949 29.8512 38.3968C30.2694 37.3726 30.5816 36.2932 30.7742 35.1725C31.9239 34.9242 33.0554 34.5093 34.1379 33.9077C34.1379 33.9077 34.1479 33.9068 34.147 33.8967C34.3582 33.7871 34.5936 33.7262 34.8325 33.7057C35.0913 33.6834 35.3544 33.7115 35.592 33.7927L39.7038 34.963C39.786 34.9864 39.8565 34.9905 39.9362 34.9836C40.3343 34.9494 40.6406 34.5471 40.5038 34.1219L39.1317 29.8302C39.1031 29.4974 39.1657 29.177 39.3016 28.891C39.3351 28.8244 39.3747 28.7574 39.4113 28.6955C39.4215 28.6783 39.4314 28.6615 39.4409 28.6453Z" fill="#636568"/>
<path d="M25 32.6424C25 40.0417 16.29 44.7339 9.91 40.6021C9.85 40.5641 9.79 40.5166 9.73 40.4881C9.52 40.3741 9.27 40.3076 9.02 40.3076L5.63 41.0485C5.3 41.1245 5 40.8775 5 40.5736C5 40.5166 5.01 40.4596 5.03 40.4026L6.2 37.4391C6.28 37.2681 6.32 37.0782 6.32 36.8787C6.32 36.6982 6.29 36.5177 6.22 36.3563C6.21 36.3563 6.21 36.3468 6.21 36.3468C5.64 35.1215 5.38 33.8487 5.38 32.5854C5.39 27.5322 9.6 22.7544 15.2 22.8494C20.55 22.8399 25 27.1427 25 32.4809C25 32.4904 25 32.4999 25 32.4999C25 32.5474 25 32.5949 25 32.6424ZM28 32.6424L28 32.4999C28 29.0804 26.62 25.9079 24.11 23.5428C21.71 21.2537 18.55 19.9999 15.22 19.9999C11.96 19.9524 8.85 21.1587 6.46 23.3908C3.87 25.8035 2.39 29.1564 2.39 32.5854C2.39 34.0766 2.67 35.5204 3.21 36.8977L2.22 39.3958C2.07 39.7757 1.99 40.1652 1.99 40.5736C1.99 41.5899 2.47 42.5493 3.32 43.1857C4.16 43.8221 5.24 44.05 6.29 43.8221L8.74 43.2807C12.51 45.4558 17.04 45.5698 21.02 43.5751C25.33 41.419 28 37.2301 28 32.6424Z" fill="#636568"/>
</svg>
