<svg width="50" height="50" viewBox="0 0 50 50" fill="none" xmlns="http://www.w3.org/2000/svg">
<path fill-rule="evenodd" clip-rule="evenodd" d="M4.03762 19.9256L6.86769 19.5478C7.46723 19.4678 8.00001 19.9342 8.00001 20.539V39.0001C8.00001 42.3138 10.6863 45.0001 14 45.0001H36C39.3137 45.0001 42 42.3138 42 39.0001V20.5404C42 19.9353 42.5332 19.4689 43.1329 19.5493L45.925 19.9238C47.5016 20.1352 48.2798 18.0699 46.9556 17.1885L27.1996 4.037L26.6455 4.86943L27.1996 4.037C25.857 3.14326 24.1091 3.14326 22.7665 4.037L3.00794 17.1901C1.68422 18.0713 2.46142 20.136 4.03762 19.9256ZM9.00001 39.0001L9.00003 20.539C9.00003 19.7148 8.50538 19.0192 7.81087 18.7101C8.50536 19.0192 9.00001 19.7148 9.00001 20.539V39.0001ZM3.63786 18.9002C3.30679 18.7574 3.20462 18.2605 3.56209 18.0226H3.56208C3.2046 18.2605 3.30678 18.7574 3.63786 18.9002ZM23.7113 4.64948C23.5771 4.71232 23.4465 4.78564 23.3206 4.86943ZM27 27C27 26.4477 27.4477 26 28 26H34C34.5523 26 35 26.4477 35 27V33C35 33.5523 34.5523 34 34 34H28C27.4477 34 27 33.5523 27 33V27ZM34 35H34C34.069 35 34.1372 34.9965 34.2045 34.9897C34.1372 34.9965 34.069 35 34 35Z" fill="#000"/>
</svg>
