<svg width="50" height="50" viewBox="0 0 50 50" fill="none" xmlns="http://www.w3.org/2000/svg">
<path d="M42.4 15.6444C41.3422 13.52 39.9022 11.7156 38.1244 10.2933C36.3289 8.86222 34.2578 7.77778 31.9644 7.07556C29.6533 6.36444 27.2356 6 24.7733 6C21.92 6 19.2089 6.51556 16.7022 7.52C14.1867 8.54222 11.9556 9.96444 10.0889 11.7422C8.22222 13.52 6.72 15.6622 5.63556 18.0889C4.55111 20.5156 4 23.1911 4 26.0444C4 28.9511 4.49778 31.6622 5.49333 34.0889C6.48889 36.5333 7.90222 38.6578 9.69778 40.4C11.4933 42.1511 13.6889 43.5289 16.24 44.5156C18.7822 45.5022 21.6533 46 24.7733 46C28.0444 46 31.1822 45.4756 34.1156 44.4267C36.2756 43.6622 38.24 42.5511 39.9733 41.12C40.3911 40.7733 40.64 40.2844 40.6756 39.7422C40.7111 39.2089 40.5244 38.6933 40.16 38.2933C39.4756 37.5556 38.3467 37.4667 37.5467 38.08C36.1689 39.1467 34.6844 40.0267 33.1289 40.7111C30.9422 41.68 28.3022 42.1689 25.2622 42.1689C22.8356 42.1689 20.5778 41.7956 18.56 41.0578C16.5244 40.3111 13.7511 39.2267 12.2844 37.8311C10.8089 36.4178 9.65333 34.7111 8.85333 32.7556C8.04444 30.7733 7.36 28.5422 7.36 26.0978C7.36 23.7956 7.84889 21.6267 8.62222 19.6444C9.38667 17.6711 10.7556 15.8311 12.1511 14.3467C13.5556 12.8711 16.1689 11.7956 18.1333 10.96C20.1067 10.1244 22.3022 9.70667 24.6667 9.70667C26.8267 9.70667 28.8622 10.0089 30.6933 10.5956C32.5333 11.1911 34.1422 12.0889 35.4933 13.2711C36.8444 14.4622 37.9111 15.9467 38.6578 17.6711C39.4133 19.4044 39.7956 21.4133 39.7956 23.6444C39.7956 26.2756 39.3067 28.4267 38.3378 30.0178C37.3867 31.5644 36.4 33.1644 34.4089 32.4978C32.56 31.8844 32.7111 28.0356 32.7644 26.7733C32.7644 26.6844 32.7733 26.6222 32.7733 26.5689C32.7822 25.92 32.7822 25.3689 32.7644 24.8622V24.8533V24.8444L32.9511 17.2267C32.9689 16.6133 32.7022 16.0267 32.24 15.6267C31.7689 15.2267 31.1556 15.0578 30.5422 15.1733C29.5911 15.3511 28.8889 16.1778 28.8711 17.1467L28.8622 17.4133L28.5333 17.4044C26.9689 16.3111 25.0578 15.6622 23.0044 15.6622C17.6711 15.6622 13.3422 19.9911 13.3422 25.3244C13.3422 30.6578 17.6711 34.9867 23.0044 34.9867C25.7511 34.9867 28.2311 33.84 29.9911 32L30.0978 31.9822C30.1333 32.1867 30.1689 32.4089 30.2044 32.6311C30.3467 33.4933 30.5067 34.4711 30.8711 35.0756C31.3511 35.8489 32.32 36.24 33.7689 36.24C35.2267 36.24 36.2044 35.9467 37.3956 35.4311C38.6578 34.8889 39.76 34.08 40.7467 32.9778C41.7244 31.8844 42.5244 30.5067 43.1111 28.88C43.6978 27.2622 44 25.3511 44 23.2C44 20.32 43.4667 17.7778 42.4 15.6444ZM23.0044 31.3511C19.68 31.3511 16.9778 28.6489 16.9778 25.3244C16.9778 22 19.68 19.2978 23.0044 19.2978C26.3289 19.2978 29.0311 22 29.0311 25.3244C29.0311 28.6489 26.3289 31.3511 23.0044 31.3511Z" fill="#000"/>
</svg>
