<svg width="50" height="50" viewBox="0 0 50 50" fill="none" xmlns="http://www.w3.org/2000/svg">
<path fill-rule="evenodd" clip-rule="evenodd" d="M43.7469 29.1906C43.9135 28.1516 44 27.0859 44 26C44 14.9543 35.0457 6 24 6C12.9543 6 4 14.9543 4 26C4 37.0457 12.9543 46 24 46C32.0646 46 39.0144 41.2268 42.1783 34.3513C41.3832 35.1944 40.8287 35.5571 39.5 36C38 36.5 36.9578 36.5 35.5 36.5C34.0511 36.5 31.98 35.76 31.5 34.9867C31.5 34.9867 30.3466 33.4934 30.2044 32.6311C30.1688 32.4089 30.1333 32.1867 30.0977 31.9823L29.9911 32C28.2311 33.84 25.7511 34.9867 23.0044 34.9867C17.6711 34.9867 13.3422 30.6578 13.3422 25.3245C13.3422 19.9911 17.6711 15.6623 23.0044 15.6623C25.0577 15.6623 26.9688 16.3111 28.5333 17.4045L28.8622 17.4134L28.8711 17.1467C28.8888 16.1778 29.5911 15.3511 30.5422 15.1734C31.1555 15.0578 31.7688 15.2267 32.2399 15.6267C32.7022 16.0267 32.9688 16.6134 32.951 17.2267L32.7644 24.8445V24.8534V24.8623C32.7822 25.3689 32.7822 25.92 32.7733 26.5689C32.7733 26.5922 32.7716 26.6171 32.7697 26.6453V26.6453C32.7672 26.6817 32.7644 26.7233 32.7644 26.7734C32.7111 28.0356 32.5599 31.8845 34.4088 32.4978C38.4632 33.491 42.7446 30.7454 43.7469 29.1906ZM29 25.3C29 28.6138 26.3137 31.3 23 31.3C19.6863 31.3 17 28.6138 17 25.3C17 21.9863 19.6863 19.3 23 19.3C26.3137 19.3 29 21.9863 29 25.3Z" fill="#000"/>
</svg>
