<svg width="56" height="56" viewBox="0 0 56 56" fill="none" xmlns="http://www.w3.org/2000/svg">
<path fill-rule="evenodd" clip-rule="evenodd" d="M34 24C34 30.0751 29.0751 35 23 35C16.9249 35 12 30.0751 12 24C12 17.9249 16.9249 13 23 13C29.0751 13 34 17.9249 34 24ZM32.3231 34.4444C29.8474 36.6557 26.5807 38 23 38C15.268 38 9 31.732 9 24C9 16.268 15.268 10 23 10C30.732 10 37 16.268 37 24C37 27.0695 36.0122 29.9083 34.3371 32.2157L42.0607 39.9393C42.6465 40.5251 42.6465 41.4749 42.0607 42.0607C41.4749 42.6464 40.5251 42.6464 39.9394 42.0607L32.3231 34.4444Z" fill="#000"/>
</svg>
